Coordinates
version=1
nRows=7
nColumns=40
inDegrees=yes

Units are S.I. units (second, meters, Newtons, ...)
If the header above contains a line with 'inDegrees', this indicates whether rotational values are in degrees (yes) or radians (no).

endheader
time	pelvis_tilt	pelvis_list	pelvis_rotation	pelvis_tx	pelvis_ty	pelvis_tz	hip_flexion_r	hip_adduction_r	hip_rotation_r	knee_angle_r	knee_angle_r_beta	ankle_angle_r	subtalar_angle_r	mtp_angle_r	hip_flexion_l	hip_adduction_l	hip_rotation_l	knee_angle_l	knee_angle_l_beta	ankle_angle_l	subtalar_angle_l	mtp_angle_l	lumbar_extension	lumbar_bending	lumbar_rotation	arm_flex_r	arm_add_r	arm_rot_r	elbow_flex_r	pro_sup_r	wrist_flex_r	wrist_dev_r	arm_flex_l	arm_add_l	arm_rot_l	elbow_flex_l	pro_sup_l	wrist_flex_l	wrist_dev_l
      3.87500000	    -19.54886546	      4.02462484	      6.26139970	     -0.24075741	      1.02896402	      0.02173078	     59.63574800	    -13.51157564	     -1.07563975	     48.88524772	      0.85320853	    -20.35231774	    -13.50357783	      0.00000000	    103.28710442	     -1.11147226	      7.29756716	    122.33301971	      2.13511398	     -8.34893015	     -3.67680264	      0.00000000	    -35.76528449	     -4.83755598	     -4.42065319	     78.32407930	     -5.60009091	    -17.39016202	     27.91029836	      0.81895043	      0.00000000	      0.00000000	     86.53815768	      1.03745573	      2.38682907	     17.79094204	     89.33469168	      0.00000000	      0.00000000
      3.88333333	    -19.09938743	      3.94239604	      6.43938863	     -0.23983661	      1.03075492	      0.02212026	     57.53360413	    -13.53515437	     -1.47340603	     48.38122762	      0.84441172	    -20.14517202	    -13.20466619	      0.00000000	    104.20770589	     -0.78620978	      7.56938576	    122.49189676	      2.13788691	     -6.56160687	     -2.22152546	      0.00000000	    -36.34343925	     -4.74361658	     -4.52915408	     78.37155418	     -5.60429314	    -17.63105487	     27.77141881	      0.81699259	      0.00000000	      0.00000000	     86.63767935	      1.03211521	      2.79897777	     17.77720837	     89.33516595	      0.00000000	      0.00000000
      3.89166667	    -19.09610258	      4.07468811	      6.49010711	     -0.23946207	      1.03190507	      0.02247357	     56.36565559	    -13.56131630	     -1.41152604	     48.44060549	      0.84544806	    -20.13477128	    -13.39088915	      0.00000000	    105.43280714	     -0.44291293	      7.44946349	    122.24763061	      2.13362366	     -5.68665961	     -2.31939976	      0.00000000	    -36.47053070	     -4.95333817	     -4.63267195	     78.33606787	     -5.66182058	    -17.65985095	     27.71227399	      0.81779149	      0.00000000	      0.00000000	     86.72792948	      1.08377371	      2.94231333	     17.68435891	     89.33579193	      0.00000000	      0.00000000
      3.90000000	    -19.04249052	      4.12984506	      6.51687364	     -0.23928051	      1.03310823	      0.02299237	     55.43000545	    -13.53919837	     -1.40872749	     48.93982428	      0.85416107	    -20.13177965	    -13.54169221	      0.00000000	    106.43829119	     -0.12558071	      7.36678904	    121.54138451	      2.12129734	     -5.01188487	     -2.40996917	      0.00000000	    -36.66110227	     -5.09899948	     -4.67007922	     78.34316148	     -5.71559236	    -17.67340968	     27.69328799	      0.80833484	      0.00000000	      0.00000000	     86.84051341	      1.12853964	      3.06205953	     17.67919272	     89.34625645	      0.00000000	      0.00000000
      3.90833333	    -19.15102659	      4.04225440	      6.85457537	     -0.23930512	      1.03378177	      0.02305528	     54.93768781	    -13.74126968	     -1.80331599	     49.98541600	      0.87241009	    -20.26589268	    -14.35425080	      0.00000000	    107.29852591	      0.47299444	      7.20538715	    120.59923308	      2.10485369	     -4.27891431	     -2.45740164	      0.00000000	    -36.63890457	     -4.94033148	     -4.88102265	     78.27428482	     -5.86139580	    -16.94878318	     27.68013376	      0.85840702	      0.00000000	      0.00000000	     86.92695141	      1.20054071	      2.98661100	     17.62790480	     89.35269606	      0.00000000	      0.00000000
      3.91666667	    -19.74505337	      4.65085125	      7.26220919	     -0.24008091	      1.03398737	      0.02295480	     55.47256268	    -14.34458467	     -1.12756118	     51.55908200	      0.89987574	    -20.64818296	    -15.75845789	      0.00000000	    108.17956049	      1.09472458	      6.14263891	    119.10951998	      2.07885329	     -3.59826745	     -3.21849015	      0.00000000	    -36.26827623	     -5.44303677	     -5.60907968	     78.26841714	     -5.67305879	    -17.85020882	     27.65055606	      0.82552821	      0.00000000	      0.00000000	     86.98602100	      1.05769611	      4.06898289	     17.63578709	     89.33787377	      0.00000000	      0.00000000
      3.92500000	    -19.54574660	      4.43276528	      7.34872003	     -0.24022588	      1.03480101	      0.02376535	     55.20521126	    -14.10928866	     -1.05364297	     53.33421445	      0.93085765	    -20.67376292	    -15.99492803	      0.00000000	    108.36233836	      1.38377996	      6.30524520	    117.25431840	      2.04647392	     -3.95559175	     -3.04632790	      0.00000000	    -36.54855082	     -5.28241269	     -5.49561256	     78.35298682	     -5.73343968	    -17.93980627	     27.63808537	      0.81957716	      0.00000000	      0.00000000	     87.16819807	      1.14519389	      4.14609951	     17.57604348	     89.33590991	      0.00000000	      0.00000000
